# xmcd CD database file
#
# Track frame offsets:
#	150
#	20165
#	38025
#	60890
#	86700
#	108502
#	122560
#	139550
#	161555
#	183385
#	211350
#	237445
#	252230
#	291055
#
# Disc length: 4047 seconds
#
# Revision: 1
# Processed by: cddbd v1.5PL3 Copyright (c) Steve Scherf et al.
# Submitted via: CDex 1.51
#
DISCID=c00fcd0e
DTITLE=Brut - Erkeðin Özü
DYEAR=1900
DGENRE=Blues
TTITLE0=Tears in heaven
TTITLE1=I Want it all
TTITLE2=Sweet Dreems
TTITLE3=Knockin on heaven's door
TTITLE4=What's going on
TTITLE5=Should i stay or should i go
TTITLE6=When a man loves a women
TTITLE7=Sacrifice
TTITLE8=Another day in paradise
TTITLE9=Bohemian Rapsody
TTITLE10=Don't let the sun go down on me
TTITLE11=Can't help falling in love
TTITLE12=November rain
TTITLE13=We are the champions --==USC==-
EXTD=
EXTT0=
EXTT1=
EXTT2=
EXTT3=
EXTT4=
EXTT5=
EXTT6=
EXTT7=
EXTT8=
EXTT9=
EXTT10=
EXTT11=
EXTT12=
EXTT13=
PLAYORDER=
